<?xml version="1.0" standalone="no"?><!DOCTYPE svg PUBLIC "-//W3C//DTD SVG 1.1//EN" "http://www.w3.org/Graphics/SVG/1.1/DTD/svg11.dtd"><svg t="1586351254132" class="icon" viewBox="0 0 1024 1024" version="1.1" xmlns="http://www.w3.org/2000/svg" p-id="5634" xmlns:xlink="http://www.w3.org/1999/xlink" width="32" height="32"><defs><style type="text/css"></style></defs><path d="M736.944192 941.492868c-13.085016 0-26.233478-3.15383-38.381146-9.547447L519.209192 837.665151c-4.901637-2.600221-10.783601-2.600221-15.727193 0l-179.333388 94.28027c-28.002774 14.661931-61.184501 12.232602-86.757946-6.287193-25.551956-18.561751-38.10383-49.442062-32.776498-80.555687l34.246989-199.706391c0.937348-5.476735-0.873903-11.081383-4.858658-14.960737l-145.086399-141.420917c-22.610974-22.057365-30.602995-54.428633-20.842701-84.455507s35.248805-51.53063 66.490344-56.070017l200.515826-29.132504c5.519714-0.788969 10.271948-4.26207 12.744255-9.270131l89.655949-181.676759c13.980409-28.322046 42.280966-45.904493 73.864288-45.904493 0.021489 0 0.021489 0 0.021489 0 31.583323 0 59.883879 17.602913 73.842799 45.904493l89.677439 181.698249c2.472308 4.986571 7.224542 8.439206 12.722766 9.248641l200.515826 29.132504c31.263028 4.539386 56.751538 26.042119 66.511833 56.070017 9.760295 30.048363 1.769296 62.399165-20.863167 84.455507l-145.086399 141.420917c-3.984754 3.87833-5.79703 9.482979-4.858658 15.002692l34.246989 199.641923c5.348821 31.114648-7.203052 61.993936-32.755008 80.555687C770.871909 936.144046 753.972007 941.492868 736.944192 941.492868zM511.345084 770.237459c13.19144 0 26.340925 3.15383 38.359656 9.482979l179.311899 94.258781c8.417717 4.411473 15.237029 0.533143 17.815761-1.279133 2.557242-1.87572 8.311293-7.203052 6.712889-16.537651l-34.246989-199.684902c-4.560876-26.76662 4.305049-54.023404 23.697725-72.92694l145.086399-141.420917c6.797823-6.627954 5.263887-14.34266 4.28356-17.347087-0.980327-3.004427-4.26207-10.144034-13.660114-11.508102L678.210509 384.14403c-26.831089-3.87833-50.01716-20.735253-62.015426-45.052079l-89.677439-181.698249 0 0c-4.198625-8.502651-11.998265-9.419534-15.152095-9.419534l-0.021489 0c-3.15383 0-10.974959 0.916882-15.173584 9.419534l-89.655949 181.698249c-12.041244 24.337291-35.227316 41.172725-62.036915 45.052079l-200.494337 29.132504c-9.376555 1.364067-12.658298 8.502651-13.638625 11.508102-0.980327 3.004427-2.514263 10.719132 4.28356 17.347087l145.06491 141.420917c19.435655 18.945491 28.28009 46.202275 23.697725 72.92694L269.143856 856.163457c-1.598404 9.334599 4.177136 14.683421 6.734378 16.537651 2.535753 1.832741 9.334599 5.689582 17.815761 1.279133l179.311899-94.28027C485.025649 773.391289 498.195599 770.237459 511.345084 770.237459z" p-id="5635"></path></svg>