<?xml version="1.0" standalone="no"?><!DOCTYPE svg PUBLIC "-//W3C//DTD SVG 1.1//EN" "http://www.w3.org/Graphics/SVG/1.1/DTD/svg11.dtd"><svg t="1587119215129" class="icon" viewBox="0 0 1024 1024" version="1.1" xmlns="http://www.w3.org/2000/svg" p-id="4319" xmlns:xlink="http://www.w3.org/1999/xlink" width="32" height="32"><defs><style type="text/css"></style></defs><path d="M698.7 64.3H328.8c-53.7 0-97.4 43.7-97.4 97.4v700.9c0 53.7 43.7 97.4 97.4 97.4h369.9c53.7 0 97.4-43.7 97.4-97.4V161.7c0-53.7-43.7-97.4-97.4-97.4z m58.4 798.3c0 32.2-26.2 58.4-58.4 58.4H328.8c-32.2 0-58.4-26.2-58.4-58.4V161.7c0-32.2 26.2-58.4 58.4-58.4h369.9c32.2 0 58.4 26.2 58.4 58.4v700.9z" p-id="4320" fill="#ffffff"></path><path d="M292.1 784.6h443.4V220.1H292.1v564.5z m19.4-545.1H716v525.6H311.5V239.5zM513.8 804.3c-26.8 0-48.6 21.8-48.6 48.6s21.8 48.6 48.6 48.6 48.6-21.8 48.6-48.6-21.8-48.6-48.6-48.6z m0 77.8c-16.1 0-29.2-13.1-29.2-29.2s13.1-29.2 29.2-29.2 29.2 13.1 29.2 29.2-13.1 29.2-29.2 29.2z" p-id="4321" fill="#ffffff"></path></svg>