<?xml version="1.0" standalone="no"?><!DOCTYPE svg PUBLIC "-//W3C//DTD SVG 1.1//EN" "http://www.w3.org/Graphics/SVG/1.1/DTD/svg11.dtd"><svg t="1587125407563" class="icon" viewBox="0 0 1170 1024" version="1.1" xmlns="http://www.w3.org/2000/svg" p-id="11177" xmlns:xlink="http://www.w3.org/1999/xlink" width="36.5625" height="32"><defs><style type="text/css"></style></defs><path d="M485.995518 941.583147m-82.40251 0a82.40251 82.40251 0 1 0 164.80502 0 82.40251 82.40251 0 1 0-164.80502 0Z" p-id="11178" fill="#ff8198"></path><path d="M884.769162 941.583147m-82.40251 0a82.40251 82.40251 0 1 0 164.80502 0 82.40251 82.40251 0 1 0-164.80502 0Z" p-id="11179" fill="#ff8198"></path><path d="M1063.573286 233.810847H301.33931a105.839534 105.839534 0 0 0-17.212013 1.735545l-44.034065-182.361273A58.80771 58.80771 0 0 0 181.816226 0.014343H58.865083a59.037203 59.037203 0 0 0-58.80771 58.80771v2.610488a59.037203 59.037203 0 0 0 58.80771 58.80771h73.65307l125.934559 520.92156 9.767817 49.556253a107.001345 107.001345 0 0 0 106.700134 106.671447h623.935455a107.001345 107.001345 0 0 0 106.671448-106.685791l54.60511-295.300762a105.39489 105.39489 0 0 0 10.140744-44.607799v-10.298521a107.001345 107.001345 0 0 0-106.700134-106.685791z m-77.454057 442.822053a27.166293 27.166293 0 0 1-27.080233 27.080233h-81.341103a27.166293 27.166293 0 0 1-27.080233-27.080233 27.166293 27.166293 0 0 1 27.080233-27.080233h81.28373a27.166293 27.166293 0 0 1 27.080233 27.080233z" p-id="11180" fill="#ff8198"></path></svg>