<?xml version="1.0" standalone="no"?><!DOCTYPE svg PUBLIC "-//W3C//DTD SVG 1.1//EN" "http://www.w3.org/Graphics/SVG/1.1/DTD/svg11.dtd"><svg t="1586599067019" class="icon" viewBox="0 0 1024 1024" version="1.1" xmlns="http://www.w3.org/2000/svg" p-id="1595" xmlns:xlink="http://www.w3.org/1999/xlink" width="32" height="32"><defs><style type="text/css"></style></defs><path d="M910.208 213.333333l-138.666667 0L771.541333 85.333333c0-47.146667-38.165333-85.333333-85.333333-85.333333l-341.333333 0c-47.146667 0-85.333333 38.186667-85.333333 85.333333l0 128-138.666667 0c-29.44 0-53.333333 23.893333-53.333333 53.333333s23.893333 53.333333 53.333333 53.333333l32 0 0 618.666667c0 47.146667 38.186667 85.333333 85.333333 85.333333l554.666667 0c47.168 0 85.333333-38.186667 85.333333-85.333333L878.208 320l32 0c29.461333 0 53.333333-23.893333 53.333333-53.333333S939.669333 213.333333 910.208 213.333333zM664.874667 213.333333l-298.666667 0L366.208 153.6c0-26.026667 20.906667-46.933333 46.933333-46.933333l204.8 0c26.005333 0 46.912 20.906667 46.912 46.933333L664.853333 213.333333zM366.229333 362.666667l0 512c0 23.466667-19.2 42.666667-42.666667 42.666667s-42.666667-19.2-42.666667-42.666667L280.896 362.666667c0-23.466667 19.2-42.666667 42.666667-42.666667S366.229333 339.2 366.229333 362.666667zM558.208 362.666667l0 512c0 23.466667-19.2 42.666667-42.666667 42.666667-23.466667 0-42.666667-19.2-42.666667-42.666667L472.874667 362.666667c0-23.466667 19.2-42.666667 42.666667-42.666667C539.008 320 558.208 339.2 558.208 362.666667zM750.208 362.666667l0 512c0 23.466667-19.2 42.666667-42.666667 42.666667s-42.666667-19.2-42.666667-42.666667L664.874667 362.666667c0-23.466667 19.2-42.666667 42.666667-42.666667S750.208 339.2 750.208 362.666667z" p-id="1596" fill="#ff5777"></path></svg>