<?xml version="1.0" standalone="no"?><!DOCTYPE svg PUBLIC "-//W3C//DTD SVG 1.1//EN" "http://www.w3.org/Graphics/SVG/1.1/DTD/svg11.dtd"><svg t="1586345562882" class="icon" viewBox="0 0 1024 1024" version="1.1" xmlns="http://www.w3.org/2000/svg" p-id="3780" xmlns:xlink="http://www.w3.org/1999/xlink" width="32" height="32"><defs><style type="text/css"></style></defs><path d="M426.542817 0.599756h170.530695C710.527404-1.899228 833.477436 32.886635 911.045912 112.954095c80.167419 77.568476 114.853323 200.518508 112.454298 313.972399v170.530696c2.399025 113.453892-32.286878 236.403924-112.454298 313.972399-77.568476 80.167419-200.518508 114.853323-313.9724 112.454298H426.542817c-113.453892 2.399025-236.403924-32.286878-313.9724-112.454298C32.402998 833.961073-2.282906 711.011041 0.116119 597.557149V427.026454C-2.282906 313.472603 32.402998 190.52257 112.570417 112.954095 190.138893 32.886635 313.088925-1.899228 426.542817 0.599756z" fill="#ff5777" p-id="3781" data-spm-anchor-id="a313x.7781069.0.i1" class="selected"></path><path d="M112.570417 112.954095C36.90117 186.224317 1.715469 299.878128 0.116119 407.834254c137.943939 0 249.79848-111.954501 249.798481-249.89844 0-42.782613-10.795613-83.066241-29.687935-118.251942-40.583507 17.892728-77.568476 42.182857-107.656248 73.270223z" fill="#FFFFFF" opacity=".5" p-id="3782"></path><path d="M789.195433 541.28002C774.101567 709.711569 686.237275 773.685569 555.490412 792.377973c-5.897603 16.693216-21.791144 28.7883-40.583507 28.7883-23.890291 0-43.18245-19.29216-43.18245-43.082491s19.29216-43.082491 43.18245-43.082491c17.193013 0 31.887041 10.095897 38.884197 24.590006 109.055679-19.092241 184.025211-74.469735 201.718021-211.813917-3.298659-0.899634-6.497359-2.199106-9.296222-4.098335-11.295409 79.767582-62.47461 146.640404-132.646092 180.226755 41.383182-30.48761 68.572132-79.967501 71.370995-137.044304 3.398619-99.659498-146.340526-198.919158-153.637561-191.222286-8.796425-8.996344-11.095491 62.774488-53.678185 87.864291-36.285253 34.985782-101.758645 7.197075-126.048773 73.969938-15.093866 72.370588 27.488828 144.041461 86.065023 178.127608-84.765551-27.488828-148.439673-101.358807-161.434392-191.522164-4.898009 3.098741-10.695653 4.898009-16.993094 4.898009h-3.998375c-17.892728 0-32.286878-14.49411-32.286879-32.386837v-56.07721c0-15.293785 10.695653-28.088585 25.089804-31.487204 30.087772-129.74727 137.544101-225.908189 265.192224-225.908189 127.948001 0 235.604249 96.660716 265.392143 226.807824 12.7948 4.298253 22.190981 16.293378 22.190981 30.587569V516.789973c-0.099959 9.796019-4.598131 18.592444-11.595287 24.490047zM513.107636 235.704208c-112.05446 0-206.416111 85.165388-233.405142 200.118671 1.59935 1.299472 3.098741 2.798863 4.498172 4.498172 29.887853-96.860635 120.15117-167.331995 227.007742-167.331995 107.156451 0 197.619686 70.871198 227.207662 168.231629 2.199106-2.898822 4.698091-5.397806 7.696872-7.396994-27.588788-113.953689-121.550601-198.119483-233.005306-198.119483zM506.910155 678.724162c-26.789113 0-49.180013-13.394556-56.477047-31.587163 14.294191 6.497359 31.687122 10.295816 50.579444 10.295816 25.489641 0 48.380338-6.997156 64.273879-17.992687-3.098741 21.991063-27.888666 39.284035-58.376276 39.284034z" fill="#FFFFFF" p-id="3783"></path><path d="M693.934147 604.754224c0 16.893135 2.099147 33.286472 6.097522 48.980094 23.99025-31.387244 40.383588-68.971969 46.181232-109.955313 2.798863 1.899228 5.897603 3.1987 9.296222 4.098334-7.097116 55.477454-23.590413 97.560351-47.880541 129.247473 4.898009 12.394963 10.995531 24.190169 18.192606 35.185701 34.386025-38.984157 56.477047-94.061773 63.374245-170.930533 6.997156-5.897603 11.495328-14.694028 11.495328-24.490047V460.812723c0-9.895978-4.498172-18.692403-11.495328-24.590007-57.076804 34.386025-95.261285 96.960595-95.261286 168.531508z" fill="#FF5E56" opacity=".5" p-id="3784"></path></svg>