<?xml version="1.0" standalone="no"?><!DOCTYPE svg PUBLIC "-//W3C//DTD SVG 1.1//EN" "http://www.w3.org/Graphics/SVG/1.1/DTD/svg11.dtd"><svg t="1584778424886" class="icon" viewBox="0 0 1024 1024" version="1.1" xmlns="http://www.w3.org/2000/svg" p-id="2739" width="16" height="16" xmlns:xlink="http://www.w3.org/1999/xlink"><defs><style type="text/css"></style></defs><path d="M512 0a512 512 0 1 0 512 512A512 512 0 0 0 512 0zM377.6 304.106667h268.8a10.666667 10.666667 0 1 1 0 21.333333H377.6a10.666667 10.666667 0 1 1 0-21.333333z m322.56 387.84a68.8 68.8 0 0 1-68.693333 68.693333H392.533333a68.8 68.8 0 0 1-68.693333-68.693333V533.333333a10.666667 10.666667 0 0 1 21.333333 0v158.613334a47.36 47.36 0 0 0 47.36 47.36h238.933334a47.466667 47.466667 0 0 0 47.36-47.36V533.333333a10.666667 10.666667 0 0 1 21.333333 0z m-24.106667-192.96a54.72 54.72 0 0 1-54.613333-54.613334 54.72 54.72 0 1 1-109.333333 0 54.72 54.72 0 1 1-109.333334 0 54.72 54.72 0 1 1-106.666666-16.426666 194.453333 194.453333 0 0 1 36.586666-62.506667 17.28 17.28 0 0 1 13.333334-6.186667h338.133333a17.28 17.28 0 0 1 14.613333 8.106667A264.106667 264.106667 0 0 1 727.786667 426.666667a54.613333 54.613333 0 0 1-51.733334 72.106666z" fill="#d4237a" p-id="2740" data-spm-anchor-id="a313x.7781069.0.i0" class="selected"></path></svg>