<?xml version="1.0" standalone="no"?><!DOCTYPE svg PUBLIC "-//W3C//DTD SVG 1.1//EN" "http://www.w3.org/Graphics/SVG/1.1/DTD/svg11.dtd"><svg t="1584009969377" class="icon" viewBox="0 0 1024 1024" version="1.1" xmlns="http://www.w3.org/2000/svg" p-id="9158" xmlns:xlink="http://www.w3.org/1999/xlink" width="200" height="200"><defs><style type="text/css"></style></defs><path d="M1024 1024 921.6 1024C921.6 797.7984 738.2016 614.4 512 614.4 285.7984 614.4 102.4 797.7984 102.4 1024L0 1024C0 807.8336 134.1952 623.3088 323.6352 548.2496 251.8016 491.9808 204.8 405.504 204.8 307.2 204.8 137.5232 342.3232 0 512 0 681.6768 0 819.2 137.5232 819.2 307.2 819.2 405.504 772.1984 491.9808 700.3648 548.2496 889.8048 623.3088 1024 807.8336 1024 1024ZM716.8 307.2C716.8 194.0992 625.1008 102.4 512 102.4 398.8992 102.4 307.2 194.0992 307.2 307.2 307.2 420.3008 398.8992 512 512 512 625.1008 512 716.8 420.3008 716.8 307.2Z" p-id="9159" fill="#2c2c2c" data-spm-anchor-id="a313x.7781069.0.i29" class="selected"></path></svg>