<?xml version="1.0" standalone="no"?><!DOCTYPE svg PUBLIC "-//W3C//DTD SVG 1.1//EN" "http://www.w3.org/Graphics/SVG/1.1/DTD/svg11.dtd"><svg t="1584009671100" class="icon" viewBox="0 0 1024 1024" version="1.1" xmlns="http://www.w3.org/2000/svg" p-id="5932" xmlns:xlink="http://www.w3.org/1999/xlink" width="200" height="200"><defs><style type="text/css"></style></defs><path d="M779 855c26.51 0 48 21.49 48 48s-21.49 48-48 48-48-21.49-48-48 21.49-48 48-48z m-480 0c26.51 0 48 21.49 48 48s-21.49 48-48 48-48-21.49-48-48 21.49-48 48-48zM136.903 92.412l0.099 0.593 33.47 208.612h725.792c33.86 0 62.154 26.747 63.673 59.946l0.037 1.008a59.356 59.356 0 0 1-0.646 10.653L894.48 786.7c-4.715 29.1-30.8 50.301-61.871 50.301H235.324c-31.07 0-57.225-21.202-62.034-50.301l-52.08-323.186a35.253 35.253 0 0 1-1.22-4.826l-0.1-0.593-55.47-352.04c-3.038-19.847 10.727-38.857 30.73-42.46 19.792-3.567 38.347 9.303 41.753 28.818zM883 375H183l64.09 389h573.083L883 375z" fill="#2c2c2c" p-id="5933"></path><path d="M793.596 600.404v80.193h-495v-80.193z" fill="#2c2c2c" p-id="5934"></path></svg>